<?xml version="1.0" encoding="UTF-8" standalone="no"?><svg xmlns="http://www.w3.org/2000/svg" xmlns:xlink="http://www.w3.org/1999/xlink" contentStyleType="text/css" height="222px" preserveAspectRatio="none" style="width:450px;height:222px;background:#FFFFFF;" version="1.1" viewBox="0 0 450 222" width="450px" zoomAndPan="magnify"><defs/><g><rect fill="#FFFFFF" height="21.0146" rx="5" ry="5" style="stroke:#FFFFFF;stroke-width:1.0;" width="72" x="5" y="127.5"/><text fill="#000000" font-family="Verdana" font-size="14" font-weight="bold" lengthAdjust="spacing" textLength="37" x="10" y="143.5752">train</text><text fill="#000000" font-family="Verdana" font-size="14" lengthAdjust="spacing" textLength="15" x="57" y="143.5752">   </text><line style="stroke:#000000;stroke-width:1.0;" x1="52" x2="52" y1="127.5" y2="148.5146"/><rect fill="none" height="21.0146" rx="5" ry="5" style="stroke:#000000;stroke-width:1.0;" width="72" x="5" y="127.5"/><rect fill="#FFFFFF" height="84.0586" rx="5" ry="5" style="stroke:#FFFFFF;stroke-width:1.0;" width="104" x="114" y="96"/><text fill="#000000" font-family="Verdana" font-size="14" font-weight="bold" lengthAdjust="spacing" textLength="31" x="119" y="112.0752">info</text><text fill="#000000" font-family="Verdana" font-size="14" lengthAdjust="spacing" textLength="15" x="198" y="112.0752">   </text><line style="stroke:#000000;stroke-width:1.0;" x1="193" x2="193" y1="96" y2="117.0146"/><line style="stroke:#000000;stroke-width:1.0;" x1="114" x2="218" y1="117.0146" y2="117.0146"/><text fill="#000000" font-family="Verdana" font-size="14" font-weight="bold" lengthAdjust="spacing" textLength="56" x="119" y="133.0898">failinfo</text><text fill="#000000" font-family="Verdana" font-size="14" lengthAdjust="spacing" textLength="15" x="198" y="133.0898">   </text><line style="stroke:#000000;stroke-width:1.0;" x1="193" x2="193" y1="117.0146" y2="138.0293"/><line style="stroke:#000000;stroke-width:1.0;" x1="114" x2="218" y1="138.0293" y2="138.0293"/><text fill="#000000" font-family="Verdana" font-size="14" font-weight="bold" lengthAdjust="spacing" textLength="39" x="119" y="154.1045">book</text><text fill="#000000" font-family="Verdana" font-size="14" lengthAdjust="spacing" textLength="15" x="198" y="154.1045">   </text><line style="stroke:#000000;stroke-width:1.0;" x1="193" x2="193" y1="138.0293" y2="159.0439"/><line style="stroke:#000000;stroke-width:1.0;" x1="114" x2="218" y1="159.0439" y2="159.0439"/><text fill="#000000" font-family="Verdana" font-size="14" font-weight="bold" lengthAdjust="spacing" textLength="69" x="119" y="175.1191">fail book</text><text fill="#000000" font-family="Verdana" font-size="14" lengthAdjust="spacing" textLength="15" x="198" y="175.1191">   </text><line style="stroke:#000000;stroke-width:1.0;" x1="193" x2="193" y1="159.0439" y2="180.0586"/><rect fill="none" height="84.0586" rx="5" ry="5" style="stroke:#000000;stroke-width:1.0;" width="104" x="114" y="96"/><rect fill="#FFFFFF" height="84.0586" rx="5" ry="5" style="stroke:#FFFFFF;stroke-width:1.0;" width="188" x="255" y="5"/><text fill="#000000" font-family="Verdana" font-size="14" font-weight="bold" lengthAdjust="spacing" textLength="56" x="260" y="21.0752">leaveat</text><text fill="#000000" font-family="Verdana" font-size="14" lengthAdjust="spacing" textLength="42" x="358" y="21.0752">09:00</text><line style="stroke:#000000;stroke-width:1.0;" x1="353" x2="353" y1="5" y2="26.0146"/><line style="stroke:#000000;stroke-width:1.0;" x1="255" x2="443" y1="26.0146" y2="26.0146"/><text fill="#000000" font-family="Verdana" font-size="14" font-weight="bold" lengthAdjust="spacing" textLength="88" x="260" y="42.0898">destination</text><text fill="#000000" font-family="Verdana" font-size="14" lengthAdjust="spacing" textLength="80" x="358" y="42.0898">broxbourne</text><line style="stroke:#000000;stroke-width:1.0;" x1="353" x2="353" y1="26.0146" y2="47.0293"/><line style="stroke:#000000;stroke-width:1.0;" x1="255" x2="443" y1="47.0293" y2="47.0293"/><text fill="#000000" font-family="Verdana" font-size="14" font-weight="bold" lengthAdjust="spacing" textLength="28" x="260" y="63.1045">day</text><text fill="#000000" font-family="Verdana" font-size="14" lengthAdjust="spacing" textLength="50" x="358" y="63.1045">sunday</text><line style="stroke:#000000;stroke-width:1.0;" x1="353" x2="353" y1="47.0293" y2="68.0439"/><line style="stroke:#000000;stroke-width:1.0;" x1="255" x2="443" y1="68.0439" y2="68.0439"/><text fill="#000000" font-family="Verdana" font-size="14" font-weight="bold" lengthAdjust="spacing" textLength="77" x="260" y="84.1191">departure</text><text fill="#000000" font-family="Verdana" font-size="14" lengthAdjust="spacing" textLength="74" x="358" y="84.1191">cambridge</text><line style="stroke:#000000;stroke-width:1.0;" x1="353" x2="353" y1="68.0439" y2="89.0586"/><rect fill="none" height="84.0586" rx="5" ry="5" style="stroke:#000000;stroke-width:1.0;" width="188" x="255" y="5"/><rect fill="#FFFFFF" height="15" rx="5" ry="5" style="stroke:#FFFFFF;stroke-width:1.0;" width="30" x="337" y="107"/><rect fill="none" height="15" rx="5" ry="5" style="stroke:#000000;stroke-width:1.0;" width="30" x="337" y="107"/><rect fill="#FFFFFF" height="42.0293" rx="5" ry="5" style="stroke:#FFFFFF;stroke-width:1.0;" width="119" x="289.5" y="141"/><text fill="#000000" font-family="Verdana" font-size="14" font-weight="bold" lengthAdjust="spacing" textLength="53" x="294.5" y="157.0752">invalid</text><text fill="#000000" font-family="Verdana" font-size="14" lengthAdjust="spacing" textLength="46" x="357.5" y="157.0752">☑ true</text><line style="stroke:#000000;stroke-width:1.0;" x1="352.5" x2="352.5" y1="141" y2="162.0146"/><line style="stroke:#000000;stroke-width:1.0;" x1="289.5" x2="408.5" y1="162.0146" y2="162.0146"/><text fill="#000000" font-family="Verdana" font-size="14" font-weight="bold" lengthAdjust="spacing" textLength="53" x="294.5" y="178.0898">people</text><text fill="#000000" font-family="Verdana" font-size="14" lengthAdjust="spacing" textLength="9" x="357.5" y="178.0898">8</text><line style="stroke:#000000;stroke-width:1.0;" x1="352.5" x2="352.5" y1="162.0146" y2="183.0293"/><rect fill="none" height="42.0293" rx="5" ry="5" style="stroke:#000000;stroke-width:1.0;" width="119" x="289.5" y="141"/><rect fill="#FFFFFF" height="15" rx="5" ry="5" style="stroke:#FFFFFF;stroke-width:1.0;" width="30" x="337" y="201"/><rect fill="none" height="15" rx="5" ry="5" style="stroke:#000000;stroke-width:1.0;" width="30" x="337" y="201"/><path d="M206,106 L219,106 C228.8694,106 245.1917,100.2535 262.9779,92.3472 " fill="none" style="stroke:#000000;stroke-width:1.0;stroke-dasharray:3.0,3.0;"/><path d="M264.2796,95.2067 L265.1225,91.371 L261.6762,89.4878 L270.1266,89.093 L264.2796,95.2067 " fill="#000000" style="stroke:#000000;stroke-width:1.0;"/><ellipse cx="206" cy="106" fill="#000000" rx="3" ry="3" style="stroke:#000000;stroke-width:1.0;"/><path d="M206,127 L219,127 C258.5573,127 304.6225,121.3799 329.7618,117.832 " fill="none" style="stroke:#000000;stroke-width:1.0;stroke-dasharray:3.0,3.0;"/><path d="M330.2069,120.9054 L332.0669,117.4982 L329.3167,114.7585 L337.4454,116.7193 L330.2069,120.9054 " fill="#000000" style="stroke:#000000;stroke-width:1.0;"/><ellipse cx="206" cy="127" fill="#000000" rx="3" ry="3" style="stroke:#000000;stroke-width:1.0;"/><path d="M206,149 L219,149 C239.6371,149 262.0319,150.6547 282.3036,152.7833 " fill="none" style="stroke:#000000;stroke-width:1.0;stroke-dasharray:3.0,3.0;"/><path d="M281.969,155.8462 L284.6008,153.0343 L282.6382,149.7204 L289.9609,153.6199 L281.969,155.8462 " fill="#000000" style="stroke:#000000;stroke-width:1.0;"/><ellipse cx="206" cy="149" fill="#000000" rx="3" ry="3" style="stroke:#000000;stroke-width:1.0;"/><path d="M206,170 L219,170 C237.7511,170 237.4788,185.3208 255,192 C279.9556,201.5133 310.7356,205.7928 329.9961,207.6537 " fill="none" style="stroke:#000000;stroke-width:1.0;stroke-dasharray:3.0,3.0;"/><path d="M329.733,210.6531 L332.2457,207.8509 L330.2592,204.6542 L337.4948,208.3113 L329.733,210.6531 " fill="#000000" style="stroke:#000000;stroke-width:1.0;"/><ellipse cx="206" cy="170" fill="#000000" rx="3" ry="3" style="stroke:#000000;stroke-width:1.0;"/><path d="M65,138 L78,138 C87.2297,138 97.007,138 106.5522,138 " fill="none" style="stroke:#000000;stroke-width:1.0;stroke-dasharray:3.0,3.0;"/><path d="M106.5522,141.0361 L108.8293,138 L106.5522,134.9639 L114.1425,138 L106.5522,141.0361 " fill="#000000" style="stroke:#000000;stroke-width:1.0;"/><ellipse cx="65" cy="138" fill="#000000" rx="3" ry="3" style="stroke:#000000;stroke-width:1.0;"/><!--MD5=[98ebaae7b1cf34a417e094c16b7f08a0]
@startjson 
!theme plain 
skinparam defaultFontName somefont
{"train":
 {"info": {"leaveat": "09:00",
            "destination": "broxbourne",
            "day": "sunday",
            "departure": "cambridge"},
  "failinfo": {},
  "book": {"invalid": true,"people": "8"},
  "fail book": {}
 }
}

@endjson

@startjson 







<style>
  root {
    BackgroundColor white
    FontColor black
    FontName Verdana
    HyperLinkColor blue
    LineColor black
    LineThickness 1
    Margin 5
  }
  caption {
    LineThickness 0
  }
  footer {
    LineThickness 0
  }
  header {
    LineThickness 0
  }
  node {
    MaximumWidth 300
  }
  title {
    FontSize 22
    LineThickness 0
  }
</style>

skinparam ArrowLollipopColor black
skinparam BackgroundColor white
skinparam DefaultFontName Verdana
skinparam DefaultMonospacedFontName Courier
skinparam LifelineStrategy nosolid
skinparam ParticipantPadding 10
skinparam SequenceLifeLineBorderColor black
skinparam Shadowing false
skinparam UseBetaStyle true

skinparam Activity {
  BackgroundColor white
  BarColor black
  BorderColor black
  FontColor black
  FontName Verdana
}
skinparam Boundary {
  FontColor black
}
skinparam Box {
  Padding 5
}
skinparam CircledCharacter {
  FontColor black
  FontName Courier
  Radius 9
}
skinparam Class {
  BackgroundColor white
  BorderColor black
  FontColor black
  FontName Verdana
}
skinparam ClassAttribute {
  FontColor black
  FontName Verdana
}
skinparam ClassStereotype {
  FontColor black
  FontName Verdana
}
skinparam Footer {
  FontColor black
  FontName Verdana
}
skinparam Header {
  FontColor black
  FontName Verdana
}
skinparam Hyperlink {
  Color blue
}
skinparam IconPackage {
  Color black
  BackgroundColor white
}
skinparam IconPrivate {
  Color black
  BackgroundColor white
}
skinparam IconProtected {
  Color black
  BackgroundColor white
}
skinparam IconPublic {
  Color black
  BackgroundColor white
}
skinparam Note {
  FontColor black
  FontName Verdana
}
skinparam Object {
  BorderColor black
}
skinparam Package {
  BorderColor black
  FontColor black
  FontName Verdana
}
skinparam State {
  BackgroundColor white
  BorderColor black
}
skinparam StereotypeA {
  BackgroundColor white
  BorderColor black
}
skinparam StereotypeC {
  BackgroundColor white
  BorderColor black
}
skinparam StereotypeE {
  BackgroundColor white
  BorderColor black
}
skinparam StereotypeI {
  BackgroundColor white
  BorderColor black
}
skinparam StereotypeN {
  BackgroundColor white
  BorderColor black
}
skinparam UseCaseStereoType {
  FontColor black
  FontName Verdana
}
skinparam defaultFontName somefont
{"train":
 {"info": {"leaveat": "09:00",
            "destination": "broxbourne",
            "day": "sunday",
            "departure": "cambridge"},
  "failinfo": {},
  "book": {"invalid": true,"people": "8"},
  "fail book": {}
 }
}

@endjson

PlantUML version 1.2022.10(Sat Oct 22 00:50:02 CST 2022)
(GPL source distribution)
Java Runtime: Java(TM) SE Runtime Environment
JVM: Java HotSpot(TM) 64-Bit Server VM
Default Encoding: US-ASCII
Language: zh
Country: CN
--></g></svg>